<svg version="1.1" id="Layer_1" xmlns="http://www.w3.org/2000/svg" x="0" y="0" viewBox="0 0 83 16" xml:space="preserve"><style>.st0{fill:#010101}.st4{fill:#88888a}</style><path class="st0" d="M23.1 7.22h.58c1.19-.06 1.49-.52 1.45-1.81 0-1.28-.4-1.4-1.28-1.4h-.75v3.21zm-2.48 3.69h.87v-6.9h-.87v-.19h3.27c1.13 0 2.97.19 2.97 1.71 0 1.25-1.38 1.66-2.42 1.74v.02c1.52.13 2.26.71 2.28 1.82.02 1.62.17 1.77.58 1.77.1 0 .31-.1.45-.24l.12.12c-.28.3-.57.5-1.39.5-1.1 0-1.37-.79-1.37-1.92 0-1.66-.4-1.91-1.47-1.93h-.54v3.5h.77v.19h-3.25v-.19zm8.62-7.05c.47 0 .84.37.84.84s-.37.84-.84.84a.83.83 0 0 1-.83-.84c0-.47.37-.84.83-.84zm-1.13 7.05h.42V6.74h-.74v-.19h.76c.42 0 1.19 0 1.4-.27v4.63h.59v.18h-2.6l.17-.18zm2.8 0h.59V6.74h-.66v-.19h.68c.42 0 1.19 0 1.4-.27v1.11h.02c.28-.6.96-.96 1.65-.96.98 0 1.45.49 1.45 1.6v2.88h.43l.07.18h-2.51v-.18h.59V7.64c0-.72-.31-.85-.61-.85-.58 0-1.09.75-1.09 1.28v2.83h.61v.19h-2.62v-.18zm8.46-2.98c-.01-1.19-.17-1.32-.65-1.32-.54 0-.63.45-.63 1.29 0 1.24.22 1.37.63 1.37.37.01.63-.07.65-1.34zm-1.8 3.54c-.28.3-.43.6-.43 1.05.02.5.53 1.13 1.45 1.13 1.04 0 1.97-.7 1.97-1.46 0-.63-.34-.72-1.37-.72h-1.62zm1.86-1.31c1.01-.02 1.5.43 1.5 1.44 0 1.26-.94 2.23-2.37 2.23-1.15 0-2.04-.59-2.04-1.35 0-.5.47-.91.89-1.02v-.02c-.43-.12-.67-.52-.67-1.03 0-.86.63-1.14 1.03-1.19v-.03c-.55-.25-.86-.69-.86-1.26 0-.94.93-1.51 1.8-1.51.58 0 .99.15 1.29.37.2-.23.45-.46.79-.46.31 0 .7.19.7.55 0 .28-.19.53-.52.53-.31 0-.47-.24-.47-.48 0-.21.06-.34.28-.45v-.01c-.4.05-.49.28-.68.47.29.25.44.71.44 1.04 0 .98-.95 1.49-1.83 1.49-.17 0-.3-.02-.42-.06a1.35 1.35 0 0 0-.34-.06c-.39 0-.84.28-.84.54 0 .28.35.29.61.29l1.71-.02zm3.49-6.3c.46 0 .83.37.83.84s-.37.84-.83.84c-.47 0-.84-.37-.84-.84s.37-.84.84-.84zm-1.42 7.05h.7V6.74h-.4l-.1-.19h.52c.42 0 1.19 0 1.4-.27v4.63h.66v.18H41.5v-.18zm5.71-2.5v-.89c0-.57-.15-.91-.65-.91-.35 0-.65.22-.65.91v.89h1.3zm-1.3.18v.87c0 .7.1 1.51 1.06 1.51.8 0 1.4-.6 1.63-1.56h.19c-.23 1.03-.85 1.81-2.12 1.81-1.32 0-2.3-1-2.3-2.35 0-1.39 1.05-2.45 2.27-2.45 1.08-.02 2.11 1.05 2.12 2.17h-2.85z"/><path class="st0" d="M48.71 10.91h.73V6.74h-.75v-.19h.75c.42 0 1.18 0 1.4-.27v1.06h.02c.2-.52.7-.97 1.36-.97.48 0 .81.3.81.8 0 .39-.29.75-.78.75-.4 0-.7-.27-.7-.67 0-.26.07-.42.25-.61h-.04c-.65.29-.9.85-.9 1.64v2.64h.71v.19h-2.86v-.2z"/><path d="M3.38 3.73A2.89 2.89 0 0 0 .5 6.62c0 1.6 1.29 2.89 2.88 2.89 1.59 0 2.88-1.3 2.88-2.89a2.883 2.883 0 0 0-2.88-2.89zm0 4.81a1.92 1.92 0 0 1 0-3.84c1.06 0 1.92.87 1.92 1.92 0 1.06-.86 1.92-1.92 1.92z" fill="#e10d7b"/><path d="M16.4 9.51c1.59 0 2.88-1.3 2.88-2.89a2.89 2.89 0 0 0-2.88-2.89 2.89 2.89 0 0 0-2.88 2.89 2.877 2.877 0 0 0 2.88 2.89zm0-4.81c1.06 0 1.91.86 1.91 1.92s-.86 1.92-1.91 1.92a1.92 1.92 0 0 1-1.92-1.92c0-1.05.86-1.92 1.92-1.92z" fill="#1b9dd9"/><path d="M9.89 3.73C8.3 3.73 7 5.03 7 6.62c0 1.6 1.29 2.89 2.88 2.89 1.59 0 2.88-1.3 2.88-2.89a2.874 2.874 0 0 0-2.87-2.89zm0 4.81a1.92 1.92 0 1 1 1.92-1.92c0 1.06-.87 1.92-1.92 1.92z" fill="#ffde08"/><path class="st4" d="M56.98 1h-.24v13.76h.24V1zm6.38 3.8h-.29l-.49-1.76-.46 1.76h-.29l-.58-2.27h.29L62 4.36l.48-1.84h.23l.52 1.84.42-1.84h.25l-.54 2.28zm2.31-.45c-.11.31-.37.5-.71.5-.46 0-.77-.35-.77-.88s.32-.89.78-.89c.28 0 .51.14.63.39.07.15.1.29.1.52h-1.22c0 .2.02.29.07.39.07.15.25.26.43.26a.454.454 0 0 0 .45-.33l.24.04zm-.26-.56c0-.16-.03-.24-.1-.33a.398.398 0 0 0-.35-.18c-.15 0-.27.06-.36.17-.08.1-.1.18-.12.34h.93zm1.97-.98h-.28v-.29h.28v.29zm-.01 1.99h-.26V3.12h.26V4.8zm1.68 0V3.72c0-.27-.12-.42-.35-.42-.27 0-.47.25-.47.58v.92h-.26V3.12h.24v.31c.17-.27.31-.36.54-.36.21 0 .39.11.48.29.04.09.06.21.06.46v.98h-.24zm1.55-1.48h-.41V4.8h-.24V3.32h-.3v-.2h.3c.01-.21.02-.28.06-.38.06-.16.23-.27.44-.27.07 0 .13.01.25.03v.21c-.07-.02-.11-.02-.16-.02-.17 0-.28.05-.32.16-.03.07-.03.09-.03.27h.41v.2zm1.78.66c0 .5-.32.87-.78.87-.44 0-.73-.36-.73-.89 0-.52.31-.88.76-.88.46-.01.75.35.75.9zm-1.1-.51c-.08.11-.12.27-.12.48 0 .43.17.68.47.68.29 0 .47-.25.47-.66 0-.23-.04-.38-.12-.49a.45.45 0 0 0-.35-.18.401.401 0 0 0-.35.17zm1.58 1.33V3.12h.23v.39c.08-.17.11-.22.17-.29.07-.09.2-.15.33-.15.02 0 .06 0 .1.01v.25c-.32-.03-.56.23-.56.58v.89h-.27zm3.2 0V3.75c0-.18-.01-.23-.06-.31a.328.328 0 0 0-.27-.15c-.11 0-.21.05-.3.15-.09.11-.13.22-.13.4v.96h-.25V3.7c0-.13-.02-.22-.08-.28a.317.317 0 0 0-.25-.12c-.23 0-.41.22-.41.51v1h-.25V3.12h.22v.32c.12-.24.3-.37.52-.37.24 0 .41.15.47.4.11-.26.3-.4.53-.4.18 0 .34.09.43.24.06.1.08.2.08.44V4.8h-.25zm1.21-.37h-.37v.37h.37v-.37zm-13.91 4.6h-.29l-.49-1.76-.46 1.76h-.29l-.58-2.27h.29L62 8.6l.48-1.84h.23l.52 1.84.42-1.84h.25l-.54 2.27zm2.31-.45c-.11.31-.37.49-.71.49-.46 0-.77-.35-.77-.88s.32-.89.78-.89c.28 0 .51.14.63.39.07.15.1.29.1.52h-1.22c0 .2.02.29.07.39.07.15.25.26.43.26a.454.454 0 0 0 .45-.33l.24.05zm-.26-.56c0-.16-.03-.23-.1-.33a.398.398 0 0 0-.35-.18c-.15 0-.27.06-.36.17-.08.1-.1.18-.12.34h.93zm3.05.56c-.11.31-.37.49-.71.49-.46 0-.77-.35-.77-.88s.32-.89.78-.89c.28 0 .51.14.63.39.07.15.09.29.1.52h-1.22c0 .2.02.29.07.39.08.15.25.26.43.26a.454.454 0 0 0 .45-.33l.24.05zm-.26-.56c0-.16-.03-.23-.09-.33a.398.398 0 0 0-.35-.18c-.15 0-.27.06-.36.17-.08.1-.1.18-.12.34h.92zm1.84 1.01V7.95c0-.27-.12-.42-.35-.42-.27 0-.47.25-.47.58v.92h-.26V7.35h.24v.31c.17-.27.31-.35.54-.35.21 0 .39.11.48.29.04.08.06.21.06.46v.97h-.24zm1.61.03c-.11.02-.17.02-.25.02-.32 0-.48-.17-.48-.51V7.55h-.3v-.2h.3l.01-.42.25-.02v.44h.38v.2h-.38V8.6c0 .17.09.26.27.26.06 0 .11 0 .2-.02v.22zm1.73-.48c-.12.31-.38.49-.72.49-.46 0-.77-.35-.77-.88s.32-.89.78-.89c.28 0 .51.14.63.39.07.15.1.29.1.52h-1.22c0 .2.02.29.07.39.08.15.25.26.43.26a.454.454 0 0 0 .45-.33l.25.05zm-.26-.56c0-.16-.03-.23-.09-.33a.398.398 0 0 0-.35-.18c-.15 0-.27.06-.36.17-.08.1-.1.18-.12.34h.92zm.76 1.01V7.35h.23v.39c.08-.17.11-.22.17-.29a.446.446 0 0 1 .43-.14v.25c-.32-.03-.56.23-.57.58v.89h-.26zm2.08.03c-.12.02-.17.02-.25.02-.32 0-.48-.17-.48-.51V7.55h-.3v-.2h.3l.01-.42.25-.02v.44h.38v.2h-.38V8.6c0 .17.09.26.27.26.06 0 .11 0 .2-.02v.22zm1.47-.03c-.02-.08-.02-.11-.03-.3-.14.25-.3.35-.59.35-.35 0-.58-.21-.58-.51 0-.19.11-.37.28-.46.15-.08.38-.12.67-.12.06 0 .11 0 .22.01v-.07c0-.32-.12-.43-.44-.43-.25 0-.4.11-.45.31l-.24-.04c.02-.12.05-.19.12-.26.13-.14.34-.2.62-.2.25 0 .42.06.52.2.08.11.11.25.11.49v.7c0 .12.01.22.04.33h-.25zm-.25-.85c-.44 0-.67.14-.67.39 0 .18.14.3.36.3.31 0 .54-.25.54-.58v-.11h-.23zm1.27-1.13h-.28v-.29h.28v.29zm-.01 1.98h-.26V7.35h.26v1.68zm1.68 0V7.95c0-.27-.12-.42-.35-.42-.27 0-.47.25-.47.58v.92h-.26V7.35h.24v.31c.17-.27.31-.35.54-.35.21 0 .39.11.48.29.04.08.06.21.06.46v.97h-.24zm1.2-.37h-.37v.37h.37v-.37zm-17.96 4.6h-.29l-.49-1.76-.46 1.76h-.29l-.58-2.27h.29l.46 1.84.48-1.84h.23l.52 1.84.42-1.84h.25l-.54 2.27zm2.31-.45c-.11.31-.37.49-.71.49-.46 0-.77-.35-.77-.88s.32-.89.78-.89c.28 0 .51.14.63.39.07.15.1.29.1.52h-1.22c0 .2.02.28.07.39.07.15.25.26.43.26.14 0 .26-.06.35-.15.04-.04.07-.09.1-.18l.24.05zm-.26-.56a.51.51 0 0 0-.1-.34.398.398 0 0 0-.35-.18c-.15 0-.27.06-.36.18-.08.1-.1.18-.12.34h.93zm2.92.46c-.04.2-.09.3-.2.41-.12.12-.26.18-.45.18-.43 0-.71-.35-.71-.88s.29-.89.72-.89c.34 0 .57.2.64.59l-.24.04a.527.527 0 0 0-.09-.26.389.389 0 0 0-.32-.16c-.28 0-.45.26-.45.66 0 .42.16.68.44.68.21 0 .35-.14.41-.42l.25.05zm1.82-.27c0 .51-.32.87-.78.87-.44 0-.73-.35-.73-.89 0-.52.31-.88.76-.88.46 0 .75.35.75.9zm-1.1-.5c-.08.11-.12.27-.12.48 0 .43.17.68.47.68.29 0 .47-.25.47-.66 0-.23-.04-.38-.12-.49a.45.45 0 0 0-.35-.18.36.36 0 0 0-.35.17zm2.66 1.32v-1.08c0-.27-.12-.42-.35-.42-.27 0-.47.25-.47.58v.92h-.26v-1.68h.24v.31c.17-.27.3-.35.54-.35.21 0 .39.11.48.29.04.08.06.21.06.46v.97h-.24zm1.93 0v-1.08c0-.27-.12-.42-.35-.42-.27 0-.47.25-.47.58v.92h-.26v-1.68h.24v.31c.17-.27.31-.35.54-.35.21 0 .39.11.48.29.05.08.06.21.06.46v.97h-.24zm2.2-.45c-.11.31-.37.49-.71.49-.46 0-.77-.35-.77-.88s.32-.89.78-.89c.28 0 .51.14.63.39.07.15.1.29.1.52h-1.22c0 .2.02.28.07.39.07.15.25.26.43.26.14 0 .26-.06.35-.15.04-.04.06-.09.1-.18l.24.05zm-.26-.56a.51.51 0 0 0-.1-.34.398.398 0 0 0-.35-.18c-.15 0-.27.06-.36.18-.07.1-.1.18-.12.34h.93zm1.99.46c-.04.2-.09.3-.2.41-.12.12-.26.18-.45.18-.43 0-.71-.35-.71-.88s.29-.89.72-.89c.34 0 .57.2.64.59l-.24.04a.527.527 0 0 0-.09-.26.403.403 0 0 0-.32-.16c-.28 0-.45.26-.45.66 0 .42.16.68.44.68.21 0 .35-.14.41-.42l.25.05zm1.21.58c-.11.02-.17.02-.25.02-.32 0-.48-.17-.48-.51v-1.01h-.3v-.2h.3l.01-.42.25-.02v.44h.38v.2h-.39v1.05c0 .18.09.26.27.26.06 0 .11 0 .2-.02l.01.21zm.72-.4h-.37v.37h.37v-.37z"/><path class="st4" d="M56.98 1h-.24v13.76h.24V1z"/></svg>